<?xml version="1.0" encoding="UTF-8" standalone="no"?>
<!DOCTYPE svg PUBLIC "-//W3C//DTD SVG 1.1//EN"
 "http://www.w3.org/Graphics/SVG/1.1/DTD/svg11.dtd">
<!-- Generated by graphviz version 12.2.1 (20241206.2353)
 -->
<!-- Title: dependency&#45;cruiser output Pages: 1 -->
<svg width="525pt" height="268pt"
 viewBox="0.00 0.00 524.50 268.00" xmlns="http://www.w3.org/2000/svg" xmlns:xlink="http://www.w3.org/1999/xlink">
<g id="graph0" class="graph" transform="scale(1 1) rotate(0) translate(4 264)">
<title>dependency&#45;cruiser output</title>
<polygon fill="white" stroke="none" points="-4,4 -4,-264 520.5,-264 520.5,4 -4,4"/>
<g id="clust1" class="cluster">
<title>cluster_src</title>
<path fill="#ffffff" stroke="black" stroke-width="2" d="M20,-8C20,-8 496.5,-8 496.5,-8 502.5,-8 508.5,-14 508.5,-20 508.5,-20 508.5,-240 508.5,-240 508.5,-246 502.5,-252 496.5,-252 496.5,-252 20,-252 20,-252 14,-252 8,-246 8,-240 8,-240 8,-20 8,-20 8,-14 14,-8 20,-8"/>
<text text-anchor="middle" x="258.25" y="-239.45" font-family="Helvetica,sans-Serif" font-weight="bold" font-size="9.00">src</text>
</g>
<!-- src/actuator -->
<g id="node1" class="node">
<title>src/actuator</title>
<g id="a_node1"><a xlink:href="src/actuator" xlink:title="actuator">
<polygon fill="#ffffcc" stroke="black" points="263.88,-33.88 211.85,-33.88 209.88,-31.9 209.88,-16.12 261.9,-16.12 263.88,-18.1 263.88,-33.88"/>
<polyline fill="none" stroke="black" points="261.9,-31.9 209.88,-31.9"/>
<polyline fill="none" stroke="black" points="261.9,-31.9 261.9,-16.12"/>
<polyline fill="none" stroke="black" points="261.9,-31.9 263.88,-33.88"/>
<text text-anchor="start" x="220.38" y="-21.32" font-family="Helvetica,sans-Serif" font-size="9.00">actuator</text>
</a>
</g>
</g>
<!-- src/shared -->
<g id="node2" class="node">
<title>src/shared</title>
<g id="a_node2"><a xlink:href="src/shared" xlink:title="shared">
<polygon fill="#ccffcc" stroke="black" points="500.5,-113.88 448.47,-113.88 446.5,-111.9 446.5,-96.12 498.53,-96.12 500.5,-98.1 500.5,-113.88"/>
<polyline fill="none" stroke="black" points="498.53,-111.9 446.5,-111.9"/>
<polyline fill="none" stroke="black" points="498.53,-111.9 498.53,-96.12"/>
<polyline fill="none" stroke="black" points="498.53,-111.9 500.5,-113.88"/>
<text text-anchor="start" x="459.25" y="-101.33" font-family="Helvetica,sans-Serif" font-size="9.00">shared</text>
</a>
</g>
</g>
<!-- src/actuator&#45;&gt;src/shared -->
<g id="edge1" class="edge">
<title>src/actuator&#45;&gt;src/shared</title>
<path fill="none" stroke="#000000" stroke-width="2" stroke-opacity="0.200000" d="M264.25,-17.47C304.5,-7.64 381.99,4.51 433.5,-30 453.23,-43.22 463.6,-69.69 468.56,-87.38"/>
<polygon fill="#000000" fill-opacity="0.200000" stroke="#000000" stroke-width="2" stroke-opacity="0.200000" points="466.42,-87.48 469.93,-92.78 470.49,-86.44 466.42,-87.48"/>
</g>
<!-- src/data.module.ts -->
<g id="node3" class="node">
<title>src/data.module.ts</title>
<g id="a_node3"><a xlink:href="src/data.module.ts" xlink:title="data.module.ts">
<path fill="#ddfeff" stroke="black" d="M360.58,-47.88C360.58,-47.88 296.42,-47.88 296.42,-47.88 293.46,-47.88 290.5,-44.92 290.5,-41.96 290.5,-41.96 290.5,-36.04 290.5,-36.04 290.5,-33.08 293.46,-30.12 296.42,-30.12 296.42,-30.12 360.58,-30.12 360.58,-30.12 363.54,-30.12 366.5,-33.08 366.5,-36.04 366.5,-36.04 366.5,-41.96 366.5,-41.96 366.5,-44.92 363.54,-47.88 360.58,-47.88"/>
<text text-anchor="start" x="298.5" y="-35.33" font-family="Helvetica,sans-Serif" font-size="9.00">data.module.ts</text>
</a>
</g>
</g>
<!-- src/actuator&#45;&gt;src/data.module.ts -->
<g id="edge2" class="edge">
<title>src/actuator&#45;&gt;src/data.module.ts</title>
<path fill="none" stroke="#000000" stroke-width="2" stroke-opacity="0.200000" d="M264.28,-29.12C269.76,-29.98 275.69,-30.91 281.64,-31.84"/>
<polygon fill="#000000" fill-opacity="0.200000" stroke="#000000" stroke-width="2" stroke-opacity="0.200000" points="281.08,-33.87 287.34,-32.73 281.73,-29.73 281.08,-33.87"/>
</g>
<!-- src/data.module.ts&#45;&gt;src/shared -->
<g id="edge18" class="edge">
<title>src/data.module.ts&#45;&gt;src/shared</title>
<path fill="none" stroke="#000000" stroke-width="2" stroke-opacity="0.200000" d="M366.98,-33.74C387.88,-32.63 413.64,-34.44 433.5,-46 449.34,-55.22 459.97,-73.75 466.08,-87.6"/>
<polygon fill="#000000" fill-opacity="0.200000" stroke="#000000" stroke-width="2" stroke-opacity="0.200000" points="464.1,-88.31 468.31,-93.07 467.99,-86.72 464.1,-88.31"/>
</g>
<!-- src/customs -->
<g id="node9" class="node">
<title>src/customs</title>
<g id="a_node9"><a xlink:href="src/customs" xlink:title="customs">
<polygon fill="#ffffcc" stroke="black" points="433.5,-69.88 381.47,-69.88 379.5,-67.9 379.5,-52.12 431.53,-52.12 433.5,-54.1 433.5,-69.88"/>
<polyline fill="none" stroke="black" points="431.53,-67.9 379.5,-67.9"/>
<polyline fill="none" stroke="black" points="431.53,-67.9 431.53,-52.12"/>
<polyline fill="none" stroke="black" points="431.53,-67.9 433.5,-69.88"/>
<text text-anchor="start" x="389.62" y="-57.33" font-family="Helvetica,sans-Serif" font-size="9.00">customs</text>
</a>
</g>
</g>
<!-- src/data.module.ts&#45;&gt;src/customs -->
<g id="edge17" class="edge">
<title>src/data.module.ts&#45;&gt;src/customs</title>
<path fill="none" stroke="#000000" stroke-width="2" stroke-opacity="0.200000" d="M361.73,-48.33C364.64,-49.17 367.6,-50.03 370.54,-50.88"/>
<polygon fill="#000000" fill-opacity="0.200000" stroke="#000000" stroke-width="2" stroke-opacity="0.200000" points="369.94,-52.89 376.29,-52.54 371.11,-48.86 369.94,-52.89"/>
</g>
<!-- src/app.controller.ts -->
<g id="node4" class="node">
<title>src/app.controller.ts</title>
<g id="a_node4"><a xlink:href="src/app.controller.ts" xlink:title="app.controller.ts">
<path fill="#ddfeff" stroke="black" d="M271.58,-91.88C271.58,-91.88 202.17,-91.88 202.17,-91.88 199.21,-91.88 196.25,-88.92 196.25,-85.96 196.25,-85.96 196.25,-80.04 196.25,-80.04 196.25,-77.08 199.21,-74.12 202.17,-74.12 202.17,-74.12 271.58,-74.12 271.58,-74.12 274.54,-74.12 277.5,-77.08 277.5,-80.04 277.5,-80.04 277.5,-85.96 277.5,-85.96 277.5,-88.92 274.54,-91.88 271.58,-91.88"/>
<text text-anchor="start" x="204.25" y="-79.33" font-family="Helvetica,sans-Serif" font-size="9.00">app.controller.ts</text>
</a>
</g>
</g>
<!-- src/app.service.ts -->
<g id="node5" class="node">
<title>src/app.service.ts</title>
<g id="a_node5"><a xlink:href="src/app.service.ts" xlink:title="app.service.ts">
<path fill="#ddfeff" stroke="black" d="M358.71,-91.88C358.71,-91.88 298.29,-91.88 298.29,-91.88 295.33,-91.88 292.38,-88.92 292.38,-85.96 292.38,-85.96 292.38,-80.04 292.38,-80.04 292.38,-77.08 295.33,-74.12 298.29,-74.12 298.29,-74.12 358.71,-74.12 358.71,-74.12 361.67,-74.12 364.62,-77.08 364.62,-80.04 364.62,-80.04 364.62,-85.96 364.62,-85.96 364.62,-88.92 361.67,-91.88 358.71,-91.88"/>
<text text-anchor="start" x="300.38" y="-79.33" font-family="Helvetica,sans-Serif" font-size="9.00">app.service.ts</text>
</a>
</g>
</g>
<!-- src/app.controller.ts&#45;&gt;src/app.service.ts -->
<g id="edge3" class="edge">
<title>src/app.controller.ts&#45;&gt;src/app.service.ts</title>
<path fill="none" stroke="#000000" stroke-width="2" stroke-opacity="0.200000" d="M277.97,-83C279.72,-83 281.47,-83 283.23,-83"/>
<polygon fill="#000000" fill-opacity="0.200000" stroke="#000000" stroke-width="2" stroke-opacity="0.200000" points="282.93,-85.1 288.93,-83 282.93,-80.9 282.93,-85.1"/>
</g>
<!-- src/app.module.ts -->
<g id="node6" class="node">
<title>src/app.module.ts</title>
<g id="a_node6"><a xlink:href="src/app.module.ts" xlink:title="app.module.ts">
<path fill="#ddfeff" stroke="black" d="M177.33,-113.88C177.33,-113.88 115.42,-113.88 115.42,-113.88 112.46,-113.88 109.5,-110.92 109.5,-107.96 109.5,-107.96 109.5,-102.04 109.5,-102.04 109.5,-99.08 112.46,-96.12 115.42,-96.12 115.42,-96.12 177.33,-96.12 177.33,-96.12 180.29,-96.12 183.25,-99.08 183.25,-102.04 183.25,-102.04 183.25,-107.96 183.25,-107.96 183.25,-110.92 180.29,-113.88 177.33,-113.88"/>
<text text-anchor="start" x="117.5" y="-101.33" font-family="Helvetica,sans-Serif" font-size="9.00">app.module.ts</text>
</a>
</g>
</g>
<!-- src/app.module.ts&#45;&gt;src/actuator -->
<g id="edge4" class="edge">
<title>src/app.module.ts&#45;&gt;src/actuator</title>
<path fill="none" stroke="#000000" stroke-width="2" stroke-opacity="0.200000" d="M152.61,-95.88C160.56,-82.69 176.83,-58.22 196.25,-43 198.26,-41.43 200.42,-39.96 202.67,-38.59"/>
<polygon fill="#000000" fill-opacity="0.200000" stroke="#000000" stroke-width="2" stroke-opacity="0.200000" points="203.59,-40.48 207.86,-35.77 201.59,-36.79 203.59,-40.48"/>
</g>
<!-- src/app.module.ts&#45;&gt;src/shared -->
<g id="edge12" class="edge">
<title>src/app.module.ts&#45;&gt;src/shared</title>
<path fill="none" stroke="#000000" stroke-width="2" stroke-opacity="0.200000" d="M183.72,-105C246.74,-105 375.46,-105 437.52,-105"/>
<polygon fill="#000000" fill-opacity="0.200000" stroke="#000000" stroke-width="2" stroke-opacity="0.200000" points="437.14,-107.1 443.14,-105 437.14,-102.9 437.14,-107.1"/>
</g>
<!-- src/app.module.ts&#45;&gt;src/app.controller.ts -->
<g id="edge5" class="edge">
<title>src/app.module.ts&#45;&gt;src/app.controller.ts</title>
<path fill="none" stroke="#000000" stroke-width="2" stroke-opacity="0.200000" d="M183.63,-95.99C185.76,-95.46 187.91,-94.92 190.07,-94.39"/>
<polygon fill="#000000" fill-opacity="0.200000" stroke="#000000" stroke-width="2" stroke-opacity="0.200000" points="190.13,-96.53 195.45,-93.05 189.12,-92.46 190.13,-96.53"/>
</g>
<!-- src/app.module.ts&#45;&gt;src/app.service.ts -->
<g id="edge6" class="edge">
<title>src/app.module.ts&#45;&gt;src/app.service.ts</title>
<path fill="none" stroke="#000000" stroke-width="2" stroke-opacity="0.200000" d="M155.69,-95.92C164.68,-86.85 179.91,-73.49 196.25,-68 228.03,-57.33 266.31,-63.73 293.31,-71.19"/>
<polygon fill="#000000" fill-opacity="0.200000" stroke="#000000" stroke-width="2" stroke-opacity="0.200000" points="292.4,-73.12 298.75,-72.78 293.58,-69.09 292.4,-73.12"/>
</g>
<!-- src/aws.module.ts -->
<g id="node7" class="node">
<title>src/aws.module.ts</title>
<g id="a_node7"><a xlink:href="src/aws.module.ts" xlink:title="aws.module.ts">
<path fill="#ddfeff" stroke="black" d="M268.21,-165.88C268.21,-165.88 205.54,-165.88 205.54,-165.88 202.58,-165.88 199.62,-162.92 199.62,-159.96 199.62,-159.96 199.62,-154.04 199.62,-154.04 199.62,-151.08 202.58,-148.12 205.54,-148.12 205.54,-148.12 268.21,-148.12 268.21,-148.12 271.17,-148.12 274.12,-151.08 274.12,-154.04 274.12,-154.04 274.12,-159.96 274.12,-159.96 274.12,-162.92 271.17,-165.88 268.21,-165.88"/>
<text text-anchor="start" x="207.62" y="-153.32" font-family="Helvetica,sans-Serif" font-size="9.00">aws.module.ts</text>
</a>
</g>
</g>
<!-- src/app.module.ts&#45;&gt;src/aws.module.ts -->
<g id="edge7" class="edge">
<title>src/app.module.ts&#45;&gt;src/aws.module.ts</title>
<path fill="none" stroke="#000000" stroke-width="2" stroke-opacity="0.200000" d="M157.64,-114.16C167.13,-122.29 181.91,-134.07 196.25,-142 197.53,-142.71 198.86,-143.4 200.21,-144.07"/>
<polygon fill="#000000" fill-opacity="0.200000" stroke="#000000" stroke-width="2" stroke-opacity="0.200000" points="199.04,-145.85 205.37,-146.41 200.78,-142.02 199.04,-145.85"/>
</g>
<!-- src/contract&#45;first -->
<g id="node8" class="node">
<title>src/contract&#45;first</title>
<g id="a_node8"><a xlink:href="src/contract-first" xlink:title="contract&#45;first">
<polygon fill="#ffffcc" stroke="black" points="269.62,-135.88 206.1,-135.88 204.12,-133.9 204.12,-118.12 267.65,-118.12 269.62,-120.1 269.62,-135.88"/>
<polyline fill="none" stroke="black" points="267.65,-133.9 204.12,-133.9"/>
<polyline fill="none" stroke="black" points="267.65,-133.9 267.65,-118.12"/>
<polyline fill="none" stroke="black" points="267.65,-133.9 269.62,-135.88"/>
<text text-anchor="start" x="212.12" y="-123.33" font-family="Helvetica,sans-Serif" font-size="9.00">contract&#45;first</text>
</a>
</g>
</g>
<!-- src/app.module.ts&#45;&gt;src/contract&#45;first -->
<g id="edge8" class="edge">
<title>src/app.module.ts&#45;&gt;src/contract&#45;first</title>
<path fill="none" stroke="#000000" stroke-width="2" stroke-opacity="0.200000" d="M183.63,-114.01C187.49,-114.97 191.44,-115.95 195.35,-116.93"/>
<polygon fill="#000000" fill-opacity="0.200000" stroke="#000000" stroke-width="2" stroke-opacity="0.200000" points="194.53,-118.89 200.86,-118.29 195.54,-114.81 194.53,-118.89"/>
</g>
<!-- src/app.module.ts&#45;&gt;src/customs -->
<g id="edge9" class="edge">
<title>src/app.module.ts&#45;&gt;src/customs</title>
<path fill="none" stroke="#000000" stroke-width="2" stroke-opacity="0.200000" d="M153.69,-95.78C161.96,-84.61 177.62,-66.39 196.25,-59 211.93,-52.78 314.93,-56.64 370.34,-59.22"/>
<polygon fill="#000000" fill-opacity="0.200000" stroke="#000000" stroke-width="2" stroke-opacity="0.200000" points="370.01,-61.31 376.11,-59.5 370.21,-57.11 370.01,-61.31"/>
</g>
<!-- src/demo -->
<g id="node10" class="node">
<title>src/demo</title>
<g id="a_node10"><a xlink:href="src/demo" xlink:title="demo">
<polygon fill="#ffffcc" stroke="black" points="263.88,-225.88 211.85,-225.88 209.88,-223.9 209.88,-208.12 261.9,-208.12 263.88,-210.1 263.88,-225.88"/>
<polyline fill="none" stroke="black" points="261.9,-223.9 209.88,-223.9"/>
<polyline fill="none" stroke="black" points="261.9,-223.9 261.9,-208.12"/>
<polyline fill="none" stroke="black" points="261.9,-223.9 263.88,-225.88"/>
<text text-anchor="start" x="225.25" y="-213.32" font-family="Helvetica,sans-Serif" font-size="9.00">demo</text>
</a>
</g>
</g>
<!-- src/app.module.ts&#45;&gt;src/demo -->
<g id="edge10" class="edge">
<title>src/app.module.ts&#45;&gt;src/demo</title>
<path fill="none" stroke="#000000" stroke-width="2" stroke-opacity="0.200000" d="M149.57,-114.12C154.58,-133.1 168.64,-177.14 196.25,-202 197.92,-203.51 199.76,-204.87 201.71,-206.1"/>
<polygon fill="#000000" fill-opacity="0.200000" stroke="#000000" stroke-width="2" stroke-opacity="0.200000" points="200.6,-207.89 206.89,-208.81 202.55,-204.17 200.6,-207.89"/>
</g>
<!-- src/examples -->
<g id="node11" class="node">
<title>src/examples</title>
<g id="a_node11"><a xlink:href="src/examples" xlink:title="examples">
<polygon fill="#ffffcc" stroke="black" points="264.75,-195.88 210.97,-195.88 209,-193.9 209,-178.12 262.78,-178.12 264.75,-180.1 264.75,-195.88"/>
<polyline fill="none" stroke="black" points="262.78,-193.9 209,-193.9"/>
<polyline fill="none" stroke="black" points="262.78,-193.9 262.78,-178.12"/>
<polyline fill="none" stroke="black" points="262.78,-193.9 264.75,-195.88"/>
<text text-anchor="start" x="217" y="-183.32" font-family="Helvetica,sans-Serif" font-size="9.00">examples</text>
</a>
</g>
</g>
<!-- src/app.module.ts&#45;&gt;src/examples -->
<g id="edge11" class="edge">
<title>src/app.module.ts&#45;&gt;src/examples</title>
<path fill="none" stroke="#000000" stroke-width="2" stroke-opacity="0.200000" d="M151.8,-114.11C159.15,-128.35 175.18,-155.94 196.25,-172 197.77,-173.16 199.39,-174.24 201.08,-175.24"/>
<polygon fill="#000000" fill-opacity="0.200000" stroke="#000000" stroke-width="2" stroke-opacity="0.200000" points="199.76,-176.93 206.06,-177.78 201.67,-173.19 199.76,-176.93"/>
</g>
<!-- src/aws.module.ts&#45;&gt;src/shared -->
<g id="edge14" class="edge">
<title>src/aws.module.ts&#45;&gt;src/shared</title>
<path fill="none" stroke="#000000" stroke-width="2" stroke-opacity="0.200000" d="M271.78,-147.69C277.99,-146.07 284.43,-144.44 290.5,-143 341.31,-130.95 400.59,-118.95 437.34,-111.75"/>
<polygon fill="#000000" fill-opacity="0.200000" stroke="#000000" stroke-width="2" stroke-opacity="0.200000" points="437.72,-113.82 443.21,-110.61 436.92,-109.7 437.72,-113.82"/>
</g>
<!-- src/constants -->
<g id="node12" class="node">
<title>src/constants</title>
<g id="a_node12"><a xlink:href="src/constants" xlink:title="constants">
<polygon fill="#ffffcc" stroke="black" points="356,-166.88 302.97,-166.88 301,-164.9 301,-149.12 354.03,-149.12 356,-151.1 356,-166.88"/>
<polyline fill="none" stroke="black" points="354.03,-164.9 301,-164.9"/>
<polyline fill="none" stroke="black" points="354.03,-164.9 354.03,-149.12"/>
<polyline fill="none" stroke="black" points="354.03,-164.9 356,-166.88"/>
<text text-anchor="start" x="309" y="-154.32" font-family="Helvetica,sans-Serif" font-size="9.00">constants</text>
</a>
</g>
</g>
<!-- src/aws.module.ts&#45;&gt;src/constants -->
<g id="edge13" class="edge">
<title>src/aws.module.ts&#45;&gt;src/constants</title>
<path fill="none" stroke="#000000" stroke-width="2" stroke-opacity="0.200000" d="M274.59,-157.41C280.3,-157.47 286.19,-157.54 291.88,-157.6"/>
<polygon fill="#000000" fill-opacity="0.200000" stroke="#000000" stroke-width="2" stroke-opacity="0.200000" points="291.53,-159.7 297.56,-157.67 291.58,-155.5 291.53,-159.7"/>
</g>
<!-- src/customs&#45;&gt;src/shared -->
<g id="edge16" class="edge">
<title>src/customs&#45;&gt;src/shared</title>
<path fill="none" stroke="#000000" stroke-width="2" stroke-opacity="0.200000" d="M421.28,-70.33C430.07,-76.28 441.64,-84.11 451.55,-90.82"/>
<polygon fill="#000000" fill-opacity="0.200000" stroke="#000000" stroke-width="2" stroke-opacity="0.200000" points="450.08,-92.36 456.23,-93.99 452.44,-88.88 450.08,-92.36"/>
</g>
<!-- src/clients -->
<g id="node13" class="node">
<title>src/clients</title>
<g id="a_node13"><a xlink:href="src/clients" xlink:title="clients">
<polygon fill="#ffffcc" stroke="black" points="433.5,-217.88 381.47,-217.88 379.5,-215.9 379.5,-200.12 431.53,-200.12 433.5,-202.1 433.5,-217.88"/>
<polyline fill="none" stroke="black" points="431.53,-215.9 379.5,-215.9"/>
<polyline fill="none" stroke="black" points="431.53,-215.9 431.53,-200.12"/>
<polyline fill="none" stroke="black" points="431.53,-215.9 433.5,-217.88"/>
<text text-anchor="start" x="393.38" y="-205.32" font-family="Helvetica,sans-Serif" font-size="9.00">clients</text>
</a>
</g>
</g>
<!-- src/demo&#45;&gt;src/clients -->
<g id="edge19" class="edge">
<title>src/demo&#45;&gt;src/clients</title>
<path fill="none" stroke="#000000" stroke-width="2" stroke-opacity="0.200000" d="M264.07,-215.75C292.64,-214.39 338.55,-212.2 370.27,-210.68"/>
<polygon fill="#000000" fill-opacity="0.200000" stroke="#000000" stroke-width="2" stroke-opacity="0.200000" points="370.3,-212.78 376.19,-210.4 370.1,-208.59 370.3,-212.78"/>
</g>
<!-- src/examples&#45;&gt;src/shared -->
<g id="edge21" class="edge">
<title>src/examples&#45;&gt;src/shared</title>
<path fill="none" stroke="#000000" stroke-width="2" stroke-opacity="0.200000" d="M265.03,-187.61C291.62,-187.4 332.93,-184.85 366.5,-173 400.69,-160.93 435.06,-135.97 455.03,-119.88"/>
<polygon fill="#000000" fill-opacity="0.200000" stroke="#000000" stroke-width="2" stroke-opacity="0.200000" points="456.31,-121.54 459.61,-116.11 453.64,-118.3 456.31,-121.54"/>
</g>
<!-- src/examples&#45;&gt;src/constants -->
<g id="edge20" class="edge">
<title>src/examples&#45;&gt;src/constants</title>
<path fill="none" stroke="#000000" stroke-width="2" stroke-opacity="0.200000" d="M264.77,-178.3C273.36,-175.52 283.01,-172.4 292.12,-169.45"/>
<polygon fill="#000000" fill-opacity="0.200000" stroke="#000000" stroke-width="2" stroke-opacity="0.200000" points="292.69,-171.47 297.75,-167.63 291.39,-167.48 292.69,-171.47"/>
</g>
<!-- src/clients&#45;&gt;src/shared -->
<g id="edge15" class="edge">
<title>src/clients&#45;&gt;src/shared</title>
<path fill="none" stroke="#000000" stroke-width="2" stroke-opacity="0.200000" d="M421.24,-199.78C425.55,-196.43 430.06,-192.38 433.5,-188 449.32,-167.84 460.66,-140.22 466.9,-122.49"/>
<polygon fill="#000000" fill-opacity="0.200000" stroke="#000000" stroke-width="2" stroke-opacity="0.200000" points="468.8,-123.44 468.73,-117.08 464.82,-122.1 468.8,-123.44"/>
</g>
<!-- src/config -->
<g id="node14" class="node">
<title>src/config</title>
<g id="a_node14"><a xlink:href="src/config" xlink:title="config">
<polygon fill="#ccffcc" stroke="black" points="83.25,-58.88 31.22,-58.88 29.25,-56.9 29.25,-41.12 81.28,-41.12 83.25,-43.1 83.25,-58.88"/>
<polyline fill="none" stroke="black" points="81.28,-56.9 29.25,-56.9"/>
<polyline fill="none" stroke="black" points="81.28,-56.9 81.28,-41.12"/>
<polyline fill="none" stroke="black" points="81.28,-56.9 83.25,-58.88"/>
<text text-anchor="start" x="43.88" y="-46.33" font-family="Helvetica,sans-Serif" font-size="9.00">config</text>
</a>
</g>
</g>
<!-- src/main.ts -->
<g id="node15" class="node">
<title>src/main.ts</title>
<g id="a_node15"><a xlink:href="src/main.ts" xlink:title="main.ts">
<path fill="#ddfeff" stroke="black" d="M77.33,-113.88C77.33,-113.88 35.17,-113.88 35.17,-113.88 32.21,-113.88 29.25,-110.92 29.25,-107.96 29.25,-107.96 29.25,-102.04 29.25,-102.04 29.25,-99.08 32.21,-96.12 35.17,-96.12 35.17,-96.12 77.33,-96.12 77.33,-96.12 80.29,-96.12 83.25,-99.08 83.25,-102.04 83.25,-102.04 83.25,-107.96 83.25,-107.96 83.25,-110.92 80.29,-113.88 77.33,-113.88"/>
<text text-anchor="start" x="41.62" y="-101.33" font-family="Helvetica,sans-Serif" font-size="9.00">main.ts</text>
</a>
</g>
</g>
<!-- src/main.ts&#45;&gt;src/app.module.ts -->
<g id="edge22" class="edge">
<title>src/main.ts&#45;&gt;src/app.module.ts</title>
<path fill="none" stroke="#000000" stroke-width="2" stroke-opacity="0.200000" d="M83.69,-105C88.95,-105 94.6,-105 100.28,-105"/>
<polygon fill="#000000" fill-opacity="0.200000" stroke="#000000" stroke-width="2" stroke-opacity="0.200000" points="100.15,-107.1 106.15,-105 100.15,-102.9 100.15,-107.1"/>
</g>
<!-- src/otel.bootstrap.ts -->
<g id="node16" class="node">
<title>src/otel.bootstrap.ts</title>
<g id="a_node16"><a xlink:href="src/otel.bootstrap.ts" xlink:title="otel.bootstrap.ts">
<path fill="#ccffcc" stroke="black" d="M90.58,-184.88C90.58,-184.88 21.92,-184.88 21.92,-184.88 18.96,-184.88 16,-181.92 16,-178.96 16,-178.96 16,-173.04 16,-173.04 16,-170.08 18.96,-167.12 21.92,-167.12 21.92,-167.12 90.58,-167.12 90.58,-167.12 93.54,-167.12 96.5,-170.08 96.5,-173.04 96.5,-173.04 96.5,-178.96 96.5,-178.96 96.5,-181.92 93.54,-184.88 90.58,-184.88"/>
<text text-anchor="start" x="24" y="-172.32" font-family="Helvetica,sans-Serif" font-size="9.00">otel.bootstrap.ts</text>
</a>
</g>
</g>
</g>
</svg>
