<?xml version="1.0" encoding="UTF-8" standalone="no"?>
<!DOCTYPE svg PUBLIC "-//W3C//DTD SVG 1.1//EN"
 "http://www.w3.org/Graphics/SVG/1.1/DTD/svg11.dtd">
<!-- Generated by graphviz version 12.2.1 (20241206.2353)
 -->
<!-- Title: dependency&#45;cruiser output Pages: 1 -->
<svg width="652pt" height="264pt"
 viewBox="0.00 0.00 652.25 264.00" xmlns="http://www.w3.org/2000/svg" xmlns:xlink="http://www.w3.org/1999/xlink">
<g id="graph0" class="graph" transform="scale(1 1) rotate(0) translate(4 260)">
<title>dependency&#45;cruiser output</title>
<polygon fill="white" stroke="none" points="-4,4 -4,-260 648.25,-260 648.25,4 -4,4"/>
<g id="clust1" class="cluster">
<title>cluster_src</title>
<path fill="#ffffff" stroke="black" stroke-width="2" d="M20,-8C20,-8 624.25,-8 624.25,-8 630.25,-8 636.25,-14 636.25,-20 636.25,-20 636.25,-236 636.25,-236 636.25,-242 630.25,-248 624.25,-248 624.25,-248 20,-248 20,-248 14,-248 8,-242 8,-236 8,-236 8,-20 8,-20 8,-14 14,-8 20,-8"/>
<text text-anchor="middle" x="322.12" y="-235.45" font-family="Helvetica,sans-Serif" font-weight="bold" font-size="9.00">src</text>
</g>
<!-- src/actuator -->
<g id="node1" class="node">
<title>src/actuator</title>
<g id="a_node1"><a xlink:href="src/actuator" xlink:title="actuator">
<polygon fill="#ffffcc" stroke="black" points="263.88,-77.88 211.85,-77.88 209.88,-75.9 209.88,-60.12 261.9,-60.12 263.88,-62.1 263.88,-77.88"/>
<polyline fill="none" stroke="black" points="261.9,-75.9 209.88,-75.9"/>
<polyline fill="none" stroke="black" points="261.9,-75.9 261.9,-60.12"/>
<polyline fill="none" stroke="black" points="261.9,-75.9 263.88,-77.88"/>
<text text-anchor="start" x="220.38" y="-65.33" font-family="Helvetica,sans-Serif" font-size="9.00">actuator</text>
</a>
</g>
</g>
<!-- src/shared -->
<g id="node2" class="node">
<title>src/shared</title>
<g id="a_node2"><a xlink:href="src/shared" xlink:title="shared">
<polygon fill="#ccffcc" stroke="black" points="627.75,-99.88 575.72,-99.88 573.75,-97.9 573.75,-82.12 625.78,-82.12 627.75,-84.1 627.75,-99.88"/>
<polyline fill="none" stroke="black" points="625.78,-97.9 573.75,-97.9"/>
<polyline fill="none" stroke="black" points="625.78,-97.9 625.78,-82.12"/>
<polyline fill="none" stroke="black" points="625.78,-97.9 627.75,-99.88"/>
<text text-anchor="start" x="586.5" y="-87.33" font-family="Helvetica,sans-Serif" font-size="9.00">shared</text>
</a>
</g>
</g>
<!-- src/actuator&#45;&gt;src/shared -->
<g id="edge1" class="edge">
<title>src/actuator&#45;&gt;src/shared</title>
<path fill="none" stroke="#000000" stroke-width="2" stroke-opacity="0.200000" d="M250.14,-59.81C260.38,-52.63 275.65,-43.06 290.5,-38 367.33,-11.81 391.8,-20.02 472.75,-26 511.96,-28.9 526.41,-18.98 560.25,-39 574.07,-47.18 584.69,-62.22 591.42,-74.03"/>
<polygon fill="#000000" fill-opacity="0.200000" stroke="#000000" stroke-width="2" stroke-opacity="0.200000" points="589.52,-74.94 594.2,-79.25 593.23,-72.96 589.52,-74.94"/>
</g>
<!-- src/data.module.ts -->
<g id="node3" class="node">
<title>src/data.module.ts</title>
<g id="a_node3"><a xlink:href="src/data.module.ts" xlink:title="data.module.ts">
<path fill="#ddfeff" stroke="black" d="M363.96,-91.88C363.96,-91.88 299.79,-91.88 299.79,-91.88 296.83,-91.88 293.88,-88.92 293.88,-85.96 293.88,-85.96 293.88,-80.04 293.88,-80.04 293.88,-77.08 296.83,-74.12 299.79,-74.12 299.79,-74.12 363.96,-74.12 363.96,-74.12 366.92,-74.12 369.88,-77.08 369.88,-80.04 369.88,-80.04 369.88,-85.96 369.88,-85.96 369.88,-88.92 366.92,-91.88 363.96,-91.88"/>
<text text-anchor="start" x="301.88" y="-79.33" font-family="Helvetica,sans-Serif" font-size="9.00">data.module.ts</text>
</a>
</g>
</g>
<!-- src/actuator&#45;&gt;src/data.module.ts -->
<g id="edge2" class="edge">
<title>src/actuator&#45;&gt;src/data.module.ts</title>
<path fill="none" stroke="#000000" stroke-width="2" stroke-opacity="0.200000" d="M264.28,-72.97C270.7,-73.94 277.75,-75 284.79,-76.06"/>
<polygon fill="#000000" fill-opacity="0.200000" stroke="#000000" stroke-width="2" stroke-opacity="0.200000" points="284.41,-78.13 290.65,-76.95 285.03,-73.98 284.41,-78.13"/>
</g>
<!-- src/data.module.ts&#45;&gt;src/shared -->
<g id="edge27" class="edge">
<title>src/data.module.ts&#45;&gt;src/shared</title>
<path fill="none" stroke="#000000" stroke-width="2" stroke-opacity="0.200000" d="M370.29,-82.78C398.46,-82.73 438.04,-82.92 472.75,-84 503.81,-84.97 539.1,-86.99 564.58,-88.61"/>
<polygon fill="#000000" fill-opacity="0.200000" stroke="#000000" stroke-width="2" stroke-opacity="0.200000" points="564.35,-90.7 570.48,-88.99 564.62,-86.51 564.35,-90.7"/>
</g>
<!-- src/customs -->
<g id="node10" class="node">
<title>src/customs</title>
<g id="a_node10"><a xlink:href="src/customs" xlink:title="customs">
<polygon fill="#ffffcc" stroke="black" points="456.5,-178.88 404.47,-178.88 402.5,-176.9 402.5,-161.12 454.53,-161.12 456.5,-163.1 456.5,-178.88"/>
<polyline fill="none" stroke="black" points="454.53,-176.9 402.5,-176.9"/>
<polyline fill="none" stroke="black" points="454.53,-176.9 454.53,-161.12"/>
<polyline fill="none" stroke="black" points="454.53,-176.9 456.5,-178.88"/>
<text text-anchor="start" x="412.62" y="-166.32" font-family="Helvetica,sans-Serif" font-size="9.00">customs</text>
</a>
</g>
</g>
<!-- src/data.module.ts&#45;&gt;src/customs -->
<g id="edge25" class="edge">
<title>src/data.module.ts&#45;&gt;src/customs</title>
<path fill="none" stroke="#000000" stroke-width="2" stroke-opacity="0.200000" d="M366.27,-92.32C368.84,-93.92 371.22,-95.8 373.25,-98 387.66,-113.61 373.44,-127.05 386.25,-144 389.81,-148.71 394.49,-152.76 399.44,-156.17"/>
<polygon fill="#000000" fill-opacity="0.200000" stroke="#000000" stroke-width="2" stroke-opacity="0.200000" points="397.99,-157.74 404.2,-159.11 400.2,-154.17 397.99,-157.74"/>
</g>
<!-- src/shared.module.ts -->
<g id="node13" class="node">
<title>src/shared.module.ts</title>
<g id="a_node13"><a xlink:href="src/shared.module.ts" xlink:title="shared.module.ts">
<path fill="#ddfeff" stroke="black" d="M466.83,-107.88C466.83,-107.88 392.17,-107.88 392.17,-107.88 389.21,-107.88 386.25,-104.92 386.25,-101.96 386.25,-101.96 386.25,-96.04 386.25,-96.04 386.25,-93.08 389.21,-90.12 392.17,-90.12 392.17,-90.12 466.83,-90.12 466.83,-90.12 469.79,-90.12 472.75,-93.08 472.75,-96.04 472.75,-96.04 472.75,-101.96 472.75,-101.96 472.75,-104.92 469.79,-107.88 466.83,-107.88"/>
<text text-anchor="start" x="394.25" y="-95.33" font-family="Helvetica,sans-Serif" font-size="9.00">shared.module.ts</text>
</a>
</g>
</g>
<!-- src/data.module.ts&#45;&gt;src/shared.module.ts -->
<g id="edge26" class="edge">
<title>src/data.module.ts&#45;&gt;src/shared.module.ts</title>
<path fill="none" stroke="#000000" stroke-width="2" stroke-opacity="0.200000" d="M370.12,-89.23C372.37,-89.61 374.65,-89.99 376.94,-90.37"/>
<polygon fill="#000000" fill-opacity="0.200000" stroke="#000000" stroke-width="2" stroke-opacity="0.200000" points="376.55,-92.44 382.81,-91.36 377.24,-88.29 376.55,-92.44"/>
</g>
<!-- src/app.controller.ts -->
<g id="node4" class="node">
<title>src/app.controller.ts</title>
<g id="a_node4"><a xlink:href="src/app.controller.ts" xlink:title="app.controller.ts">
<path fill="#ddfeff" stroke="black" d="M271.58,-107.88C271.58,-107.88 202.17,-107.88 202.17,-107.88 199.21,-107.88 196.25,-104.92 196.25,-101.96 196.25,-101.96 196.25,-96.04 196.25,-96.04 196.25,-93.08 199.21,-90.12 202.17,-90.12 202.17,-90.12 271.58,-90.12 271.58,-90.12 274.54,-90.12 277.5,-93.08 277.5,-96.04 277.5,-96.04 277.5,-101.96 277.5,-101.96 277.5,-104.92 274.54,-107.88 271.58,-107.88"/>
<text text-anchor="start" x="204.25" y="-95.33" font-family="Helvetica,sans-Serif" font-size="9.00">app.controller.ts</text>
</a>
</g>
</g>
<!-- src/app.service.ts -->
<g id="node5" class="node">
<title>src/app.service.ts</title>
<g id="a_node5"><a xlink:href="src/app.service.ts" xlink:title="app.service.ts">
<path fill="#ddfeff" stroke="black" d="M362.08,-121.88C362.08,-121.88 301.67,-121.88 301.67,-121.88 298.71,-121.88 295.75,-118.92 295.75,-115.96 295.75,-115.96 295.75,-110.04 295.75,-110.04 295.75,-107.08 298.71,-104.12 301.67,-104.12 301.67,-104.12 362.08,-104.12 362.08,-104.12 365.04,-104.12 368,-107.08 368,-110.04 368,-110.04 368,-115.96 368,-115.96 368,-118.92 365.04,-121.88 362.08,-121.88"/>
<text text-anchor="start" x="303.75" y="-109.33" font-family="Helvetica,sans-Serif" font-size="9.00">app.service.ts</text>
</a>
</g>
</g>
<!-- src/app.controller.ts&#45;&gt;src/app.service.ts -->
<g id="edge3" class="edge">
<title>src/app.controller.ts&#45;&gt;src/app.service.ts</title>
<path fill="none" stroke="#000000" stroke-width="2" stroke-opacity="0.200000" d="M277.86,-105.02C280.76,-105.46 283.7,-105.9 286.63,-106.34"/>
<polygon fill="#000000" fill-opacity="0.200000" stroke="#000000" stroke-width="2" stroke-opacity="0.200000" points="286.09,-108.38 292.33,-107.2 286.71,-104.23 286.09,-108.38"/>
</g>
<!-- src/app.module.ts -->
<g id="node6" class="node">
<title>src/app.module.ts</title>
<g id="a_node6"><a xlink:href="src/app.module.ts" xlink:title="app.module.ts">
<path fill="#ddfeff" stroke="black" d="M177.33,-143.88C177.33,-143.88 115.42,-143.88 115.42,-143.88 112.46,-143.88 109.5,-140.92 109.5,-137.96 109.5,-137.96 109.5,-132.04 109.5,-132.04 109.5,-129.08 112.46,-126.12 115.42,-126.12 115.42,-126.12 177.33,-126.12 177.33,-126.12 180.29,-126.12 183.25,-129.08 183.25,-132.04 183.25,-132.04 183.25,-137.96 183.25,-137.96 183.25,-140.92 180.29,-143.88 177.33,-143.88"/>
<text text-anchor="start" x="117.5" y="-131.32" font-family="Helvetica,sans-Serif" font-size="9.00">app.module.ts</text>
</a>
</g>
</g>
<!-- src/app.module.ts&#45;&gt;src/actuator -->
<g id="edge4" class="edge">
<title>src/app.module.ts&#45;&gt;src/actuator</title>
<path fill="none" stroke="#000000" stroke-width="2" stroke-opacity="0.200000" d="M154.03,-125.89C162.64,-114.66 178.66,-95.63 196.25,-84 197.9,-82.91 199.63,-81.89 201.42,-80.93"/>
<polygon fill="#000000" fill-opacity="0.200000" stroke="#000000" stroke-width="2" stroke-opacity="0.200000" points="202.23,-82.86 206.75,-78.4 200.43,-79.07 202.23,-82.86"/>
</g>
<!-- src/app.module.ts&#45;&gt;src/shared -->
<g id="edge14" class="edge">
<title>src/app.module.ts&#45;&gt;src/shared</title>
<path fill="none" stroke="#000000" stroke-width="2" stroke-opacity="0.200000" d="M152.19,-144.25C159.62,-157.41 175.26,-181.05 196.25,-191 251.79,-217.32 412,-194.31 472.75,-185 512.09,-178.97 528.57,-190.08 560.25,-166 578.93,-151.8 589.67,-126.19 595.11,-108.89"/>
<polygon fill="#000000" fill-opacity="0.200000" stroke="#000000" stroke-width="2" stroke-opacity="0.200000" points="597.11,-109.52 596.76,-103.17 593.08,-108.35 597.11,-109.52"/>
</g>
<!-- src/app.module.ts&#45;&gt;src/app.controller.ts -->
<g id="edge5" class="edge">
<title>src/app.module.ts&#45;&gt;src/app.controller.ts</title>
<path fill="none" stroke="#000000" stroke-width="2" stroke-opacity="0.200000" d="M170.17,-125.73C180.72,-121.44 193.41,-116.27 204.82,-111.63"/>
<polygon fill="#000000" fill-opacity="0.200000" stroke="#000000" stroke-width="2" stroke-opacity="0.200000" points="205.28,-113.71 210.05,-109.51 203.7,-109.82 205.28,-113.71"/>
</g>
<!-- src/app.module.ts&#45;&gt;src/app.service.ts -->
<g id="edge6" class="edge">
<title>src/app.module.ts&#45;&gt;src/app.service.ts</title>
<path fill="none" stroke="#000000" stroke-width="2" stroke-opacity="0.200000" d="M183.63,-130.65C213.23,-127.11 255.16,-122.08 286.72,-118.29"/>
<polygon fill="#000000" fill-opacity="0.200000" stroke="#000000" stroke-width="2" stroke-opacity="0.200000" points="286.61,-120.42 292.32,-117.62 286.11,-116.25 286.61,-120.42"/>
</g>
<!-- src/aws.module.ts -->
<g id="node7" class="node">
<title>src/aws.module.ts</title>
<g id="a_node7"><a xlink:href="src/aws.module.ts" xlink:title="aws.module.ts">
<path fill="#ddfeff" stroke="black" d="M554.33,-221.88C554.33,-221.88 491.67,-221.88 491.67,-221.88 488.71,-221.88 485.75,-218.92 485.75,-215.96 485.75,-215.96 485.75,-210.04 485.75,-210.04 485.75,-207.08 488.71,-204.12 491.67,-204.12 491.67,-204.12 554.33,-204.12 554.33,-204.12 557.29,-204.12 560.25,-207.08 560.25,-210.04 560.25,-210.04 560.25,-215.96 560.25,-215.96 560.25,-218.92 557.29,-221.88 554.33,-221.88"/>
<text text-anchor="start" x="493.75" y="-209.32" font-family="Helvetica,sans-Serif" font-size="9.00">aws.module.ts</text>
</a>
</g>
</g>
<!-- src/app.module.ts&#45;&gt;src/aws.module.ts -->
<g id="edge7" class="edge">
<title>src/app.module.ts&#45;&gt;src/aws.module.ts</title>
<path fill="none" stroke="#000000" stroke-width="2" stroke-opacity="0.200000" d="M150.06,-144.15C155.56,-160.99 169.86,-196.49 196.25,-211 287.36,-261.1 415.62,-240.27 480.67,-224.55"/>
<polygon fill="#000000" fill-opacity="0.200000" stroke="#000000" stroke-width="2" stroke-opacity="0.200000" points="481.17,-226.59 486.49,-223.1 480.16,-222.51 481.17,-226.59"/>
</g>
<!-- src/config.module.ts -->
<g id="node8" class="node">
<title>src/config.module.ts</title>
<g id="a_node8"><a xlink:href="src/config.module.ts" xlink:title="config.module.ts">
<path fill="#ddfeff" stroke="black" d="M367.33,-61.88C367.33,-61.88 296.42,-61.88 296.42,-61.88 293.46,-61.88 290.5,-58.92 290.5,-55.96 290.5,-55.96 290.5,-50.04 290.5,-50.04 290.5,-47.08 293.46,-44.12 296.42,-44.12 296.42,-44.12 367.33,-44.12 367.33,-44.12 370.29,-44.12 373.25,-47.08 373.25,-50.04 373.25,-50.04 373.25,-55.96 373.25,-55.96 373.25,-58.92 370.29,-61.88 367.33,-61.88"/>
<text text-anchor="start" x="298.5" y="-49.33" font-family="Helvetica,sans-Serif" font-size="9.00">config.module.ts</text>
</a>
</g>
</g>
<!-- src/app.module.ts&#45;&gt;src/config.module.ts -->
<g id="edge8" class="edge">
<title>src/app.module.ts&#45;&gt;src/config.module.ts</title>
<path fill="none" stroke="#000000" stroke-width="2" stroke-opacity="0.200000" d="M149.71,-125.82C154.77,-108.15 168.56,-69.77 196.25,-54 222.16,-39.24 255.68,-38.95 282.79,-42.36"/>
<polygon fill="#000000" fill-opacity="0.200000" stroke="#000000" stroke-width="2" stroke-opacity="0.200000" points="282.49,-44.44 288.72,-43.22 283.08,-40.28 282.49,-44.44"/>
</g>
<!-- src/contract&#45;first -->
<g id="node9" class="node">
<title>src/contract&#45;first</title>
<g id="a_node9"><a xlink:href="src/contract-first" xlink:title="contract&#45;first">
<polygon fill="#ffffcc" stroke="black" points="269.62,-165.88 206.1,-165.88 204.12,-163.9 204.12,-148.12 267.65,-148.12 269.62,-150.1 269.62,-165.88"/>
<polyline fill="none" stroke="black" points="267.65,-163.9 204.12,-163.9"/>
<polyline fill="none" stroke="black" points="267.65,-163.9 267.65,-148.12"/>
<polyline fill="none" stroke="black" points="267.65,-163.9 269.62,-165.88"/>
<text text-anchor="start" x="212.12" y="-153.32" font-family="Helvetica,sans-Serif" font-size="9.00">contract&#45;first</text>
</a>
</g>
</g>
<!-- src/app.module.ts&#45;&gt;src/contract&#45;first -->
<g id="edge9" class="edge">
<title>src/app.module.ts&#45;&gt;src/contract&#45;first</title>
<path fill="none" stroke="#000000" stroke-width="2" stroke-opacity="0.200000" d="M183.63,-144.01C187.49,-144.97 191.44,-145.95 195.35,-146.93"/>
<polygon fill="#000000" fill-opacity="0.200000" stroke="#000000" stroke-width="2" stroke-opacity="0.200000" points="194.53,-148.89 200.86,-148.29 195.54,-144.81 194.53,-148.89"/>
</g>
<!-- src/app.module.ts&#45;&gt;src/customs -->
<g id="edge10" class="edge">
<title>src/app.module.ts&#45;&gt;src/customs</title>
<path fill="none" stroke="#000000" stroke-width="2" stroke-opacity="0.200000" d="M153.74,-144.03C162.06,-154.95 177.77,-172.79 196.25,-180 262.3,-205.78 347.07,-191.47 393.76,-179.95"/>
<polygon fill="#000000" fill-opacity="0.200000" stroke="#000000" stroke-width="2" stroke-opacity="0.200000" points="394.07,-182.04 399.37,-178.52 393.04,-177.97 394.07,-182.04"/>
</g>
<!-- src/demo -->
<g id="node11" class="node">
<title>src/demo</title>
<g id="a_node11"><a xlink:href="src/demo" xlink:title="demo">
<polygon fill="#ffffcc" stroke="black" points="263.88,-33.88 211.85,-33.88 209.88,-31.9 209.88,-16.12 261.9,-16.12 263.88,-18.1 263.88,-33.88"/>
<polyline fill="none" stroke="black" points="261.9,-31.9 209.88,-31.9"/>
<polyline fill="none" stroke="black" points="261.9,-31.9 261.9,-16.12"/>
<polyline fill="none" stroke="black" points="261.9,-31.9 263.88,-33.88"/>
<text text-anchor="start" x="225.25" y="-21.32" font-family="Helvetica,sans-Serif" font-size="9.00">demo</text>
</a>
</g>
</g>
<!-- src/app.module.ts&#45;&gt;src/demo -->
<g id="edge11" class="edge">
<title>src/app.module.ts&#45;&gt;src/demo</title>
<path fill="none" stroke="#000000" stroke-width="2" stroke-opacity="0.200000" d="M150.09,-125.65C155.8,-107.47 170.68,-67.03 196.25,-43 198.06,-41.3 200.05,-39.74 202.16,-38.32"/>
<polygon fill="#000000" fill-opacity="0.200000" stroke="#000000" stroke-width="2" stroke-opacity="0.200000" points="202.88,-40.32 207.01,-35.49 200.77,-36.7 202.88,-40.32"/>
</g>
<!-- src/examples -->
<g id="node12" class="node">
<title>src/examples</title>
<g id="a_node12"><a xlink:href="src/examples" xlink:title="examples">
<polygon fill="#ffffcc" stroke="black" points="457.38,-137.88 403.6,-137.88 401.62,-135.9 401.62,-120.12 455.4,-120.12 457.38,-122.1 457.38,-137.88"/>
<polyline fill="none" stroke="black" points="455.4,-135.9 401.62,-135.9"/>
<polyline fill="none" stroke="black" points="455.4,-135.9 455.4,-120.12"/>
<polyline fill="none" stroke="black" points="455.4,-135.9 457.38,-137.88"/>
<text text-anchor="start" x="409.62" y="-125.33" font-family="Helvetica,sans-Serif" font-size="9.00">examples</text>
</a>
</g>
</g>
<!-- src/app.module.ts&#45;&gt;src/examples -->
<g id="edge12" class="edge">
<title>src/app.module.ts&#45;&gt;src/examples</title>
<path fill="none" stroke="#000000" stroke-width="2" stroke-opacity="0.200000" d="M155.69,-144.08C164.68,-153.15 179.91,-166.51 196.25,-172 268.77,-196.35 358.94,-162.38 402.52,-142.15"/>
<polygon fill="#000000" fill-opacity="0.200000" stroke="#000000" stroke-width="2" stroke-opacity="0.200000" points="403.34,-144.08 407.86,-139.61 401.54,-140.29 403.34,-144.08"/>
</g>
<!-- src/app.module.ts&#45;&gt;src/shared.module.ts -->
<g id="edge13" class="edge">
<title>src/app.module.ts&#45;&gt;src/shared.module.ts</title>
<path fill="none" stroke="#000000" stroke-width="2" stroke-opacity="0.200000" d="M183.58,-137.22C238.64,-140.03 340.48,-142.9 373.25,-128 380.98,-124.49 379.16,-118.67 386.25,-114 387.06,-113.47 387.9,-112.95 388.75,-112.45"/>
<polygon fill="#000000" fill-opacity="0.200000" stroke="#000000" stroke-width="2" stroke-opacity="0.200000" points="389.68,-114.33 394.08,-109.73 387.78,-110.58 389.68,-114.33"/>
</g>
<!-- src/aws.module.ts&#45;&gt;src/shared -->
<g id="edge16" class="edge">
<title>src/aws.module.ts&#45;&gt;src/shared</title>
<path fill="none" stroke="#000000" stroke-width="2" stroke-opacity="0.200000" d="M549.12,-203.65C553.22,-201.3 557.14,-198.44 560.25,-195 561.02,-194.15 582.27,-137.63 593.28,-108.28"/>
<polygon fill="#000000" fill-opacity="0.200000" stroke="#000000" stroke-width="2" stroke-opacity="0.200000" points="595.13,-109.32 595.27,-102.97 591.2,-107.85 595.13,-109.32"/>
</g>
<!-- src/constants -->
<g id="node14" class="node">
<title>src/constants</title>
<g id="a_node14"><a xlink:href="src/constants" xlink:title="constants">
<polygon fill="#ffffcc" stroke="black" points="628.25,-185.88 575.22,-185.88 573.25,-183.9 573.25,-168.12 626.28,-168.12 628.25,-170.1 628.25,-185.88"/>
<polyline fill="none" stroke="black" points="626.28,-183.9 573.25,-183.9"/>
<polyline fill="none" stroke="black" points="626.28,-183.9 626.28,-168.12"/>
<polyline fill="none" stroke="black" points="626.28,-183.9 628.25,-185.88"/>
<text text-anchor="start" x="581.25" y="-173.32" font-family="Helvetica,sans-Serif" font-size="9.00">constants</text>
</a>
</g>
</g>
<!-- src/aws.module.ts&#45;&gt;src/constants -->
<g id="edge15" class="edge">
<title>src/aws.module.ts&#45;&gt;src/constants</title>
<path fill="none" stroke="#000000" stroke-width="2" stroke-opacity="0.200000" d="M543.51,-203.73C552.19,-199.6 562.56,-194.67 572.03,-190.17"/>
<polygon fill="#000000" fill-opacity="0.200000" stroke="#000000" stroke-width="2" stroke-opacity="0.200000" points="572.79,-192.14 577.31,-187.66 570.99,-188.34 572.79,-192.14"/>
</g>
<!-- src/config.module.ts&#45;&gt;src/shared -->
<g id="edge20" class="edge">
<title>src/config.module.ts&#45;&gt;src/shared</title>
<path fill="none" stroke="#000000" stroke-width="2" stroke-opacity="0.200000" d="M373.72,-57C419.37,-61.75 495.4,-70.5 560.25,-82 561.73,-82.26 563.23,-82.54 564.75,-82.84"/>
<polygon fill="#000000" fill-opacity="0.200000" stroke="#000000" stroke-width="2" stroke-opacity="0.200000" points="564.21,-84.87 570.51,-84.03 565.06,-80.76 564.21,-84.87"/>
</g>
<!-- src/config.module.ts&#45;&gt;src/examples -->
<g id="edge19" class="edge">
<title>src/config.module.ts&#45;&gt;src/examples</title>
<path fill="none" stroke="#000000" stroke-width="2" stroke-opacity="0.200000" d="M366.27,-62.32C368.84,-63.92 371.22,-65.8 373.25,-68 387.66,-83.61 371.73,-98.49 386.25,-114 388.27,-116.16 390.62,-118.01 393.16,-119.59"/>
<polygon fill="#000000" fill-opacity="0.200000" stroke="#000000" stroke-width="2" stroke-opacity="0.200000" points="392.19,-121.45 398.5,-122.24 394.06,-117.69 392.19,-121.45"/>
</g>
<!-- src/clients -->
<g id="node15" class="node">
<title>src/clients</title>
<g id="a_node15"><a xlink:href="src/clients" xlink:title="clients">
<polygon fill="#ffffcc" stroke="black" points="456.5,-49.88 404.47,-49.88 402.5,-47.9 402.5,-32.12 454.53,-32.12 456.5,-34.1 456.5,-49.88"/>
<polyline fill="none" stroke="black" points="454.53,-47.9 402.5,-47.9"/>
<polyline fill="none" stroke="black" points="454.53,-47.9 454.53,-32.12"/>
<polyline fill="none" stroke="black" points="454.53,-47.9 456.5,-49.88"/>
<text text-anchor="start" x="416.38" y="-37.33" font-family="Helvetica,sans-Serif" font-size="9.00">clients</text>
</a>
</g>
</g>
<!-- src/config.module.ts&#45;&gt;src/clients -->
<g id="edge18" class="edge">
<title>src/config.module.ts&#45;&gt;src/clients</title>
<path fill="none" stroke="#000000" stroke-width="2" stroke-opacity="0.200000" d="M373.71,-47.88C380.34,-47.04 387.15,-46.19 393.62,-45.38"/>
<polygon fill="#000000" fill-opacity="0.200000" stroke="#000000" stroke-width="2" stroke-opacity="0.200000" points="393.49,-47.51 399.18,-44.68 392.97,-43.34 393.49,-47.51"/>
</g>
<!-- src/customs&#45;&gt;src/shared -->
<g id="edge23" class="edge">
<title>src/customs&#45;&gt;src/shared</title>
<path fill="none" stroke="#000000" stroke-width="2" stroke-opacity="0.200000" d="M456.79,-169.87C489.65,-169.24 543.61,-166.57 560.25,-156 577.58,-144.99 588.43,-123.37 594.28,-108.1"/>
<polygon fill="#000000" fill-opacity="0.200000" stroke="#000000" stroke-width="2" stroke-opacity="0.200000" points="596.12,-109.18 596.15,-102.82 592.16,-107.78 596.12,-109.18"/>
</g>
<!-- src/customs&#45;&gt;src/aws.module.ts -->
<g id="edge21" class="edge">
<title>src/customs&#45;&gt;src/aws.module.ts</title>
<path fill="none" stroke="#000000" stroke-width="2" stroke-opacity="0.200000" d="M450.35,-179.33C463.18,-185.36 480.06,-193.29 494.22,-199.94"/>
<polygon fill="#000000" fill-opacity="0.200000" stroke="#000000" stroke-width="2" stroke-opacity="0.200000" points="493.12,-201.75 499.44,-202.4 494.91,-197.95 493.12,-201.75"/>
</g>
<!-- src/customs&#45;&gt;src/constants -->
<g id="edge24" class="edge">
<title>src/customs&#45;&gt;src/constants</title>
<path fill="none" stroke="#000000" stroke-width="2" stroke-opacity="0.200000" d="M456.95,-171.09C485.84,-172.29 532.27,-174.21 564.31,-175.53"/>
<polygon fill="#000000" fill-opacity="0.200000" stroke="#000000" stroke-width="2" stroke-opacity="0.200000" points="563.83,-177.62 569.91,-175.77 564,-173.42 563.83,-177.62"/>
</g>
<!-- src/events -->
<g id="node17" class="node">
<title>src/events</title>
<g id="a_node17"><a xlink:href="src/events" xlink:title="events">
<polygon fill="#ffffcc" stroke="black" points="550,-149.88 497.97,-149.88 496,-147.9 496,-132.12 548.03,-132.12 550,-134.1 550,-149.88"/>
<polyline fill="none" stroke="black" points="548.03,-147.9 496,-147.9"/>
<polyline fill="none" stroke="black" points="548.03,-147.9 548.03,-132.12"/>
<polyline fill="none" stroke="black" points="548.03,-147.9 550,-149.88"/>
<text text-anchor="start" x="509.5" y="-137.32" font-family="Helvetica,sans-Serif" font-size="9.00">events</text>
</a>
</g>
</g>
<!-- src/customs&#45;&gt;src/events -->
<g id="edge22" class="edge">
<title>src/customs&#45;&gt;src/events</title>
<path fill="none" stroke="#000000" stroke-width="2" stroke-opacity="0.200000" d="M456.97,-161.61C466.35,-158.64 477.07,-155.24 487.06,-152.07"/>
<polygon fill="#000000" fill-opacity="0.200000" stroke="#000000" stroke-width="2" stroke-opacity="0.200000" points="487.62,-154.1 492.71,-150.28 486.35,-150.09 487.62,-154.1"/>
</g>
<!-- src/demo&#45;&gt;src/clients -->
<g id="edge28" class="edge">
<title>src/demo&#45;&gt;src/clients</title>
<path fill="none" stroke="#000000" stroke-width="2" stroke-opacity="0.200000" d="M263.98,-27.19C297.59,-30.01 356.1,-34.92 393.53,-38.06"/>
<polygon fill="#000000" fill-opacity="0.200000" stroke="#000000" stroke-width="2" stroke-opacity="0.200000" points="392.93,-40.12 399.08,-38.53 393.28,-35.94 392.93,-40.12"/>
</g>
<!-- src/examples&#45;&gt;src/shared -->
<g id="edge31" class="edge">
<title>src/examples&#45;&gt;src/shared</title>
<path fill="none" stroke="#000000" stroke-width="2" stroke-opacity="0.200000" d="M457.71,-121.87C466.62,-119.6 476.59,-117.12 485.75,-115 500.51,-111.58 537.02,-103.94 564.78,-98.2"/>
<polygon fill="#000000" fill-opacity="0.200000" stroke="#000000" stroke-width="2" stroke-opacity="0.200000" points="565.04,-100.29 570.49,-97.02 564.19,-96.18 565.04,-100.29"/>
</g>
<!-- src/examples&#45;&gt;src/constants -->
<g id="edge29" class="edge">
<title>src/examples&#45;&gt;src/constants</title>
<path fill="none" stroke="#000000" stroke-width="2" stroke-opacity="0.200000" d="M457.64,-121.41C485.02,-115.3 527.78,-110.08 560.25,-126 574.49,-132.98 585.06,-147.85 591.67,-159.74"/>
<polygon fill="#000000" fill-opacity="0.200000" stroke="#000000" stroke-width="2" stroke-opacity="0.200000" points="589.78,-160.65 594.39,-165.02 593.51,-158.73 589.78,-160.65"/>
</g>
<!-- src/examples&#45;&gt;src/events -->
<g id="edge30" class="edge">
<title>src/examples&#45;&gt;src/events</title>
<path fill="none" stroke="#000000" stroke-width="2" stroke-opacity="0.200000" d="M457.46,-132.54C466.66,-133.74 477.09,-135.11 486.84,-136.39"/>
<polygon fill="#000000" fill-opacity="0.200000" stroke="#000000" stroke-width="2" stroke-opacity="0.200000" points="486.33,-138.44 492.55,-137.14 486.87,-134.28 486.33,-138.44"/>
</g>
<!-- src/shared.module.ts&#45;&gt;src/shared -->
<g id="edge33" class="edge">
<title>src/shared.module.ts&#45;&gt;src/shared</title>
<path fill="none" stroke="#000000" stroke-width="2" stroke-opacity="0.200000" d="M473.21,-96.98C501.42,-95.65 537.93,-93.92 564.49,-92.67"/>
<polygon fill="#000000" fill-opacity="0.200000" stroke="#000000" stroke-width="2" stroke-opacity="0.200000" points="564.51,-94.77 570.41,-92.39 564.32,-90.57 564.51,-94.77"/>
</g>
<!-- src/clients&#45;&gt;src/shared -->
<g id="edge17" class="edge">
<title>src/clients&#45;&gt;src/shared</title>
<path fill="none" stroke="#000000" stroke-width="2" stroke-opacity="0.200000" d="M456.97,-40.58C484,-41.06 526.66,-44.43 560.25,-59 569.36,-62.95 578.09,-69.61 585.02,-75.83"/>
<polygon fill="#000000" fill-opacity="0.200000" stroke="#000000" stroke-width="2" stroke-opacity="0.200000" points="583.3,-77.1 589.09,-79.71 586.19,-74.05 583.3,-77.1"/>
</g>
<!-- src/config -->
<g id="node16" class="node">
<title>src/config</title>
<g id="a_node16"><a xlink:href="src/config" xlink:title="config">
<polygon fill="#ccffcc" stroke="black" points="83.25,-73.88 31.22,-73.88 29.25,-71.9 29.25,-56.12 81.28,-56.12 83.25,-58.1 83.25,-73.88"/>
<polyline fill="none" stroke="black" points="81.28,-71.9 29.25,-71.9"/>
<polyline fill="none" stroke="black" points="81.28,-71.9 81.28,-56.12"/>
<polyline fill="none" stroke="black" points="81.28,-71.9 83.25,-73.88"/>
<text text-anchor="start" x="43.88" y="-61.33" font-family="Helvetica,sans-Serif" font-size="9.00">config</text>
</a>
</g>
</g>
<!-- src/main.ts -->
<g id="node18" class="node">
<title>src/main.ts</title>
<g id="a_node18"><a xlink:href="src/main.ts" xlink:title="main.ts">
<path fill="#ddfeff" stroke="black" d="M77.33,-143.88C77.33,-143.88 35.17,-143.88 35.17,-143.88 32.21,-143.88 29.25,-140.92 29.25,-137.96 29.25,-137.96 29.25,-132.04 29.25,-132.04 29.25,-129.08 32.21,-126.12 35.17,-126.12 35.17,-126.12 77.33,-126.12 77.33,-126.12 80.29,-126.12 83.25,-129.08 83.25,-132.04 83.25,-132.04 83.25,-137.96 83.25,-137.96 83.25,-140.92 80.29,-143.88 77.33,-143.88"/>
<text text-anchor="start" x="41.62" y="-131.32" font-family="Helvetica,sans-Serif" font-size="9.00">main.ts</text>
</a>
</g>
</g>
<!-- src/main.ts&#45;&gt;src/app.module.ts -->
<g id="edge32" class="edge">
<title>src/main.ts&#45;&gt;src/app.module.ts</title>
<path fill="none" stroke="#000000" stroke-width="2" stroke-opacity="0.200000" d="M83.69,-135C88.95,-135 94.6,-135 100.28,-135"/>
<polygon fill="#000000" fill-opacity="0.200000" stroke="#000000" stroke-width="2" stroke-opacity="0.200000" points="100.15,-137.1 106.15,-135 100.15,-132.9 100.15,-137.1"/>
</g>
<!-- src/otel.bootstrap.ts -->
<g id="node19" class="node">
<title>src/otel.bootstrap.ts</title>
<g id="a_node19"><a xlink:href="src/otel.bootstrap.ts" xlink:title="otel.bootstrap.ts">
<path fill="#ccffcc" stroke="black" d="M90.58,-197.88C90.58,-197.88 21.92,-197.88 21.92,-197.88 18.96,-197.88 16,-194.92 16,-191.96 16,-191.96 16,-186.04 16,-186.04 16,-183.08 18.96,-180.12 21.92,-180.12 21.92,-180.12 90.58,-180.12 90.58,-180.12 93.54,-180.12 96.5,-183.08 96.5,-186.04 96.5,-186.04 96.5,-191.96 96.5,-191.96 96.5,-194.92 93.54,-197.88 90.58,-197.88"/>
<text text-anchor="start" x="24" y="-185.32" font-family="Helvetica,sans-Serif" font-size="9.00">otel.bootstrap.ts</text>
</a>
</g>
</g>
</g>
</svg>
