<?xml version="1.0" encoding="UTF-8" standalone="no"?>
<!DOCTYPE svg PUBLIC "-//W3C//DTD SVG 1.1//EN"
 "http://www.w3.org/Graphics/SVG/1.1/DTD/svg11.dtd">
<!-- Generated by graphviz version 12.2.1 (20241206.2353)
 -->
<!-- Title: dependency&#45;cruiser output Pages: 1 -->
<svg width="526pt" height="192pt"
 viewBox="0.00 0.00 526.25 192.00" xmlns="http://www.w3.org/2000/svg" xmlns:xlink="http://www.w3.org/1999/xlink">
<g id="graph0" class="graph" transform="scale(1 1) rotate(0) translate(4 188)">
<title>dependency&#45;cruiser output</title>
<polygon fill="white" stroke="none" points="-4,4 -4,-188 522.25,-188 522.25,4 -4,4"/>
<g id="clust1" class="cluster">
<title>cluster_src</title>
<path fill="#ffffff" stroke="black" stroke-width="2" d="M20,-8C20,-8 498.25,-8 498.25,-8 504.25,-8 510.25,-14 510.25,-20 510.25,-20 510.25,-164 510.25,-164 510.25,-170 504.25,-176 498.25,-176 498.25,-176 20,-176 20,-176 14,-176 8,-170 8,-164 8,-164 8,-20 8,-20 8,-14 14,-8 20,-8"/>
<text text-anchor="middle" x="259.12" y="-163.45" font-family="Helvetica,sans-Serif" font-weight="bold" font-size="9.00">src</text>
</g>
<!-- src/actuator -->
<g id="node1" class="node">
<title>src/actuator</title>
<g id="a_node1"><a xlink:href="src/actuator" xlink:title="actuator">
<polygon fill="#ffffcc" stroke="black" points="263.88,-33.88 211.85,-33.88 209.88,-31.9 209.88,-16.12 261.9,-16.12 263.88,-18.1 263.88,-33.88"/>
<polyline fill="none" stroke="black" points="261.9,-31.9 209.88,-31.9"/>
<polyline fill="none" stroke="black" points="261.9,-31.9 261.9,-16.12"/>
<polyline fill="none" stroke="black" points="261.9,-31.9 263.88,-33.88"/>
<text text-anchor="start" x="220.38" y="-21.32" font-family="Helvetica,sans-Serif" font-size="9.00">actuator</text>
</a>
</g>
</g>
<!-- src/shared -->
<g id="node2" class="node">
<title>src/shared</title>
<g id="a_node2"><a xlink:href="src/shared" xlink:title="shared">
<polygon fill="#ccffcc" stroke="black" points="502.25,-83.88 450.22,-83.88 448.25,-81.9 448.25,-66.12 500.28,-66.12 502.25,-68.1 502.25,-83.88"/>
<polyline fill="none" stroke="black" points="500.28,-81.9 448.25,-81.9"/>
<polyline fill="none" stroke="black" points="500.28,-81.9 500.28,-66.12"/>
<polyline fill="none" stroke="black" points="500.28,-81.9 502.25,-83.88"/>
<text text-anchor="start" x="461" y="-71.33" font-family="Helvetica,sans-Serif" font-size="9.00">shared</text>
</a>
</g>
</g>
<!-- src/actuator&#45;&gt;src/shared -->
<g id="edge1" class="edge">
<title>src/actuator&#45;&gt;src/shared</title>
<path fill="none" stroke="#000000" stroke-width="2" stroke-opacity="0.200000" d="M264.24,-19.57C303.85,-12.83 379.95,-5.39 435.25,-34 446.32,-39.73 455.99,-49.84 462.94,-58.59"/>
<polygon fill="#000000" fill-opacity="0.200000" stroke="#000000" stroke-width="2" stroke-opacity="0.200000" points="461.22,-59.81 466.49,-63.36 464.59,-57.3 461.22,-59.81"/>
</g>
<!-- src/data.module.ts -->
<g id="node3" class="node">
<title>src/data.module.ts</title>
<g id="a_node3"><a xlink:href="src/data.module.ts" xlink:title="data.module.ts">
<path fill="#ddfeff" stroke="black" d="M360.58,-47.88C360.58,-47.88 296.42,-47.88 296.42,-47.88 293.46,-47.88 290.5,-44.92 290.5,-41.96 290.5,-41.96 290.5,-36.04 290.5,-36.04 290.5,-33.08 293.46,-30.12 296.42,-30.12 296.42,-30.12 360.58,-30.12 360.58,-30.12 363.54,-30.12 366.5,-33.08 366.5,-36.04 366.5,-36.04 366.5,-41.96 366.5,-41.96 366.5,-44.92 363.54,-47.88 360.58,-47.88"/>
<text text-anchor="start" x="298.5" y="-35.33" font-family="Helvetica,sans-Serif" font-size="9.00">data.module.ts</text>
</a>
</g>
</g>
<!-- src/actuator&#45;&gt;src/data.module.ts -->
<g id="edge2" class="edge">
<title>src/actuator&#45;&gt;src/data.module.ts</title>
<path fill="none" stroke="#000000" stroke-width="2" stroke-opacity="0.200000" d="M264.28,-29.12C269.76,-29.98 275.69,-30.91 281.64,-31.84"/>
<polygon fill="#000000" fill-opacity="0.200000" stroke="#000000" stroke-width="2" stroke-opacity="0.200000" points="281.08,-33.87 287.34,-32.73 281.73,-29.73 281.08,-33.87"/>
</g>
<!-- src/data.module.ts&#45;&gt;src/shared -->
<g id="edge14" class="edge">
<title>src/data.module.ts&#45;&gt;src/shared</title>
<path fill="none" stroke="#000000" stroke-width="2" stroke-opacity="0.200000" d="M366.78,-36.39C387.54,-36.17 413.49,-37.99 435.25,-46 443.74,-49.13 451.96,-54.72 458.65,-60.17"/>
<polygon fill="#000000" fill-opacity="0.200000" stroke="#000000" stroke-width="2" stroke-opacity="0.200000" points="457.05,-61.56 462.95,-63.91 459.8,-58.39 457.05,-61.56"/>
</g>
<!-- src/customs -->
<g id="node7" class="node">
<title>src/customs</title>
<g id="a_node7"><a xlink:href="src/customs" xlink:title="customs">
<polygon fill="#ffffcc" stroke="black" points="434.38,-69.88 382.35,-69.88 380.38,-67.9 380.38,-52.12 432.4,-52.12 434.38,-54.1 434.38,-69.88"/>
<polyline fill="none" stroke="black" points="432.4,-67.9 380.38,-67.9"/>
<polyline fill="none" stroke="black" points="432.4,-67.9 432.4,-52.12"/>
<polyline fill="none" stroke="black" points="432.4,-67.9 434.38,-69.88"/>
<text text-anchor="start" x="390.5" y="-57.33" font-family="Helvetica,sans-Serif" font-size="9.00">customs</text>
</a>
</g>
</g>
<!-- src/data.module.ts&#45;&gt;src/customs -->
<g id="edge13" class="edge">
<title>src/data.module.ts&#45;&gt;src/customs</title>
<path fill="none" stroke="#000000" stroke-width="2" stroke-opacity="0.200000" d="M362.1,-48.33C365.32,-49.25 368.59,-50.19 371.83,-51.11"/>
<polygon fill="#000000" fill-opacity="0.200000" stroke="#000000" stroke-width="2" stroke-opacity="0.200000" points="370.99,-53.06 377.33,-52.69 372.14,-49.02 370.99,-53.06"/>
</g>
<!-- src/app.controller.ts -->
<g id="node4" class="node">
<title>src/app.controller.ts</title>
<g id="a_node4"><a xlink:href="src/app.controller.ts" xlink:title="app.controller.ts">
<path fill="#ddfeff" stroke="black" d="M271.58,-77.88C271.58,-77.88 202.17,-77.88 202.17,-77.88 199.21,-77.88 196.25,-74.92 196.25,-71.96 196.25,-71.96 196.25,-66.04 196.25,-66.04 196.25,-63.08 199.21,-60.12 202.17,-60.12 202.17,-60.12 271.58,-60.12 271.58,-60.12 274.54,-60.12 277.5,-63.08 277.5,-66.04 277.5,-66.04 277.5,-71.96 277.5,-71.96 277.5,-74.92 274.54,-77.88 271.58,-77.88"/>
<text text-anchor="start" x="204.25" y="-65.33" font-family="Helvetica,sans-Serif" font-size="9.00">app.controller.ts</text>
</a>
</g>
</g>
<!-- src/app.service.ts -->
<g id="node5" class="node">
<title>src/app.service.ts</title>
<g id="a_node5"><a xlink:href="src/app.service.ts" xlink:title="app.service.ts">
<path fill="#ddfeff" stroke="black" d="M358.71,-91.88C358.71,-91.88 298.29,-91.88 298.29,-91.88 295.33,-91.88 292.38,-88.92 292.38,-85.96 292.38,-85.96 292.38,-80.04 292.38,-80.04 292.38,-77.08 295.33,-74.12 298.29,-74.12 298.29,-74.12 358.71,-74.12 358.71,-74.12 361.67,-74.12 364.62,-77.08 364.62,-80.04 364.62,-80.04 364.62,-85.96 364.62,-85.96 364.62,-88.92 361.67,-91.88 358.71,-91.88"/>
<text text-anchor="start" x="300.38" y="-79.33" font-family="Helvetica,sans-Serif" font-size="9.00">app.service.ts</text>
</a>
</g>
</g>
<!-- src/app.controller.ts&#45;&gt;src/app.service.ts -->
<g id="edge3" class="edge">
<title>src/app.controller.ts&#45;&gt;src/app.service.ts</title>
<path fill="none" stroke="#000000" stroke-width="2" stroke-opacity="0.200000" d="M277.97,-75.26C279.72,-75.54 281.47,-75.81 283.23,-76.08"/>
<polygon fill="#000000" fill-opacity="0.200000" stroke="#000000" stroke-width="2" stroke-opacity="0.200000" points="282.71,-78.13 288.96,-76.98 283.36,-73.98 282.71,-78.13"/>
</g>
<!-- src/app.module.ts -->
<g id="node6" class="node">
<title>src/app.module.ts</title>
<g id="a_node6"><a xlink:href="src/app.module.ts" xlink:title="app.module.ts">
<path fill="#ddfeff" stroke="black" d="M177.33,-99.88C177.33,-99.88 115.42,-99.88 115.42,-99.88 112.46,-99.88 109.5,-96.92 109.5,-93.96 109.5,-93.96 109.5,-88.04 109.5,-88.04 109.5,-85.08 112.46,-82.12 115.42,-82.12 115.42,-82.12 177.33,-82.12 177.33,-82.12 180.29,-82.12 183.25,-85.08 183.25,-88.04 183.25,-88.04 183.25,-93.96 183.25,-93.96 183.25,-96.92 180.29,-99.88 177.33,-99.88"/>
<text text-anchor="start" x="117.5" y="-87.33" font-family="Helvetica,sans-Serif" font-size="9.00">app.module.ts</text>
</a>
</g>
</g>
<!-- src/app.module.ts&#45;&gt;src/actuator -->
<g id="edge4" class="edge">
<title>src/app.module.ts&#45;&gt;src/actuator</title>
<path fill="none" stroke="#000000" stroke-width="2" stroke-opacity="0.200000" d="M154.89,-81.89C163.87,-71.44 179.78,-54.3 196.25,-43 198.62,-41.38 201.16,-39.84 203.76,-38.39"/>
<polygon fill="#000000" fill-opacity="0.200000" stroke="#000000" stroke-width="2" stroke-opacity="0.200000" points="204.58,-40.33 208.98,-35.74 202.68,-36.59 204.58,-40.33"/>
</g>
<!-- src/app.module.ts&#45;&gt;src/shared -->
<g id="edge10" class="edge">
<title>src/app.module.ts&#45;&gt;src/shared</title>
<path fill="none" stroke="#000000" stroke-width="2" stroke-opacity="0.200000" d="M183.55,-95.18C227.08,-99.51 302.34,-104.77 366.5,-98 373.76,-97.23 410.7,-89.2 439.32,-82.84"/>
<polygon fill="#000000" fill-opacity="0.200000" stroke="#000000" stroke-width="2" stroke-opacity="0.200000" points="439.55,-84.94 444.95,-81.59 438.63,-80.84 439.55,-84.94"/>
</g>
<!-- src/app.module.ts&#45;&gt;src/app.controller.ts -->
<g id="edge5" class="edge">
<title>src/app.module.ts&#45;&gt;src/app.controller.ts</title>
<path fill="none" stroke="#000000" stroke-width="2" stroke-opacity="0.200000" d="M183.63,-81.99C185.76,-81.46 187.91,-80.92 190.07,-80.39"/>
<polygon fill="#000000" fill-opacity="0.200000" stroke="#000000" stroke-width="2" stroke-opacity="0.200000" points="190.13,-82.53 195.45,-79.05 189.12,-78.46 190.13,-82.53"/>
</g>
<!-- src/app.module.ts&#45;&gt;src/app.service.ts -->
<g id="edge6" class="edge">
<title>src/app.module.ts&#45;&gt;src/app.service.ts</title>
<path fill="none" stroke="#000000" stroke-width="2" stroke-opacity="0.200000" d="M183.39,-89.4C212.17,-88.12 252.64,-86.32 283.36,-84.96"/>
<polygon fill="#000000" fill-opacity="0.200000" stroke="#000000" stroke-width="2" stroke-opacity="0.200000" points="283.23,-87.07 289.13,-84.7 283.05,-82.87 283.23,-87.07"/>
</g>
<!-- src/app.module.ts&#45;&gt;src/customs -->
<g id="edge7" class="edge">
<title>src/app.module.ts&#45;&gt;src/customs</title>
<path fill="none" stroke="#000000" stroke-width="2" stroke-opacity="0.200000" d="M155.69,-81.92C164.68,-72.85 179.91,-59.49 196.25,-54 230.48,-42.5 241.4,-53.02 277.5,-54 309.36,-54.86 345.6,-56.93 371.52,-58.59"/>
<polygon fill="#000000" fill-opacity="0.200000" stroke="#000000" stroke-width="2" stroke-opacity="0.200000" points="371.08,-60.67 377.21,-58.97 371.36,-56.48 371.08,-60.67"/>
</g>
<!-- src/demo -->
<g id="node8" class="node">
<title>src/demo</title>
<g id="a_node8"><a xlink:href="src/demo" xlink:title="demo">
<polygon fill="#ffffcc" stroke="black" points="263.88,-135.88 211.85,-135.88 209.88,-133.9 209.88,-118.12 261.9,-118.12 263.88,-120.1 263.88,-135.88"/>
<polyline fill="none" stroke="black" points="261.9,-133.9 209.88,-133.9"/>
<polyline fill="none" stroke="black" points="261.9,-133.9 261.9,-118.12"/>
<polyline fill="none" stroke="black" points="261.9,-133.9 263.88,-135.88"/>
<text text-anchor="start" x="225.25" y="-123.33" font-family="Helvetica,sans-Serif" font-size="9.00">demo</text>
</a>
</g>
</g>
<!-- src/app.module.ts&#45;&gt;src/demo -->
<g id="edge8" class="edge">
<title>src/app.module.ts&#45;&gt;src/demo</title>
<path fill="none" stroke="#000000" stroke-width="2" stroke-opacity="0.200000" d="M170.17,-100.27C180.72,-104.56 193.41,-109.73 204.82,-114.37"/>
<polygon fill="#000000" fill-opacity="0.200000" stroke="#000000" stroke-width="2" stroke-opacity="0.200000" points="203.7,-116.18 210.05,-116.49 205.28,-112.29 203.7,-116.18"/>
</g>
<!-- src/examples -->
<g id="node9" class="node">
<title>src/examples</title>
<g id="a_node9"><a xlink:href="src/examples" xlink:title="examples">
<polygon fill="#ffffcc" stroke="black" points="435.25,-149.88 381.47,-149.88 379.5,-147.9 379.5,-132.12 433.28,-132.12 435.25,-134.1 435.25,-149.88"/>
<polyline fill="none" stroke="black" points="433.28,-147.9 379.5,-147.9"/>
<polyline fill="none" stroke="black" points="433.28,-147.9 433.28,-132.12"/>
<polyline fill="none" stroke="black" points="433.28,-147.9 435.25,-149.88"/>
<text text-anchor="start" x="387.5" y="-137.32" font-family="Helvetica,sans-Serif" font-size="9.00">examples</text>
</a>
</g>
</g>
<!-- src/app.module.ts&#45;&gt;src/examples -->
<g id="edge9" class="edge">
<title>src/app.module.ts&#45;&gt;src/examples</title>
<path fill="none" stroke="#000000" stroke-width="2" stroke-opacity="0.200000" d="M152.89,-100.35C160.74,-112.6 176.4,-133.53 196.25,-142 253.26,-166.33 327.16,-157.92 370.41,-149.52"/>
<polygon fill="#000000" fill-opacity="0.200000" stroke="#000000" stroke-width="2" stroke-opacity="0.200000" points="370.73,-151.59 376.19,-148.34 369.9,-147.48 370.73,-151.59"/>
</g>
<!-- src/customs&#45;&gt;src/shared -->
<g id="edge12" class="edge">
<title>src/customs&#45;&gt;src/shared</title>
<path fill="none" stroke="#000000" stroke-width="2" stroke-opacity="0.200000" d="M434.79,-66.61C436.27,-66.93 437.76,-67.25 439.26,-67.56"/>
<polygon fill="#000000" fill-opacity="0.200000" stroke="#000000" stroke-width="2" stroke-opacity="0.200000" points="438.56,-69.56 444.87,-68.76 439.44,-65.45 438.56,-69.56"/>
</g>
<!-- src/clients -->
<g id="node10" class="node">
<title>src/clients</title>
<g id="a_node10"><a xlink:href="src/clients" xlink:title="clients">
<polygon fill="#ffffcc" stroke="black" points="434.38,-119.88 382.35,-119.88 380.38,-117.9 380.38,-102.12 432.4,-102.12 434.38,-104.1 434.38,-119.88"/>
<polyline fill="none" stroke="black" points="432.4,-117.9 380.38,-117.9"/>
<polyline fill="none" stroke="black" points="432.4,-117.9 432.4,-102.12"/>
<polyline fill="none" stroke="black" points="432.4,-117.9 434.38,-119.88"/>
<text text-anchor="start" x="394.25" y="-107.33" font-family="Helvetica,sans-Serif" font-size="9.00">clients</text>
</a>
</g>
</g>
<!-- src/demo&#45;&gt;src/clients -->
<g id="edge15" class="edge">
<title>src/demo&#45;&gt;src/clients</title>
<path fill="none" stroke="#000000" stroke-width="2" stroke-opacity="0.200000" d="M264.2,-124.5C293.05,-121.76 339.47,-117.35 371.37,-114.32"/>
<polygon fill="#000000" fill-opacity="0.200000" stroke="#000000" stroke-width="2" stroke-opacity="0.200000" points="371.17,-116.45 376.94,-113.79 370.77,-112.27 371.17,-116.45"/>
</g>
<!-- src/examples&#45;&gt;src/shared -->
<g id="edge16" class="edge">
<title>src/examples&#45;&gt;src/shared</title>
<path fill="none" stroke="#000000" stroke-width="2" stroke-opacity="0.200000" d="M427.25,-131.78C430.06,-130.04 432.83,-128.1 435.25,-126 446.67,-116.12 456.92,-102.41 464.05,-91.7"/>
<polygon fill="#000000" fill-opacity="0.200000" stroke="#000000" stroke-width="2" stroke-opacity="0.200000" points="465.75,-92.93 467.22,-86.75 462.21,-90.67 465.75,-92.93"/>
</g>
<!-- src/clients&#45;&gt;src/shared -->
<g id="edge11" class="edge">
<title>src/clients&#45;&gt;src/shared</title>
<path fill="none" stroke="#000000" stroke-width="2" stroke-opacity="0.200000" d="M425.34,-101.73C432.66,-97.73 441.37,-92.97 449.39,-88.58"/>
<polygon fill="#000000" fill-opacity="0.200000" stroke="#000000" stroke-width="2" stroke-opacity="0.200000" points="450.2,-90.54 454.46,-85.82 448.19,-86.85 450.2,-90.54"/>
</g>
<!-- src/config -->
<g id="node11" class="node">
<title>src/config</title>
<g id="a_node11"><a xlink:href="src/config" xlink:title="config">
<polygon fill="#ccffcc" stroke="black" points="83.25,-51.88 31.22,-51.88 29.25,-49.9 29.25,-34.12 81.28,-34.12 83.25,-36.1 83.25,-51.88"/>
<polyline fill="none" stroke="black" points="81.28,-49.9 29.25,-49.9"/>
<polyline fill="none" stroke="black" points="81.28,-49.9 81.28,-34.12"/>
<polyline fill="none" stroke="black" points="81.28,-49.9 83.25,-51.88"/>
<text text-anchor="start" x="43.88" y="-39.33" font-family="Helvetica,sans-Serif" font-size="9.00">config</text>
</a>
</g>
</g>
<!-- src/main.ts -->
<g id="node12" class="node">
<title>src/main.ts</title>
<g id="a_node12"><a xlink:href="src/main.ts" xlink:title="main.ts">
<path fill="#ddfeff" stroke="black" d="M77.33,-99.88C77.33,-99.88 35.17,-99.88 35.17,-99.88 32.21,-99.88 29.25,-96.92 29.25,-93.96 29.25,-93.96 29.25,-88.04 29.25,-88.04 29.25,-85.08 32.21,-82.12 35.17,-82.12 35.17,-82.12 77.33,-82.12 77.33,-82.12 80.29,-82.12 83.25,-85.08 83.25,-88.04 83.25,-88.04 83.25,-93.96 83.25,-93.96 83.25,-96.92 80.29,-99.88 77.33,-99.88"/>
<text text-anchor="start" x="41.62" y="-87.33" font-family="Helvetica,sans-Serif" font-size="9.00">main.ts</text>
</a>
</g>
</g>
<!-- src/main.ts&#45;&gt;src/app.module.ts -->
<g id="edge17" class="edge">
<title>src/main.ts&#45;&gt;src/app.module.ts</title>
<path fill="none" stroke="#000000" stroke-width="2" stroke-opacity="0.200000" d="M83.69,-91C88.95,-91 94.6,-91 100.28,-91"/>
<polygon fill="#000000" fill-opacity="0.200000" stroke="#000000" stroke-width="2" stroke-opacity="0.200000" points="100.15,-93.1 106.15,-91 100.15,-88.9 100.15,-93.1"/>
</g>
<!-- src/otel.bootstrap.ts -->
<g id="node13" class="node">
<title>src/otel.bootstrap.ts</title>
<g id="a_node13"><a xlink:href="src/otel.bootstrap.ts" xlink:title="otel.bootstrap.ts">
<path fill="#ccffcc" stroke="black" d="M90.58,-139.88C90.58,-139.88 21.92,-139.88 21.92,-139.88 18.96,-139.88 16,-136.92 16,-133.96 16,-133.96 16,-128.04 16,-128.04 16,-125.08 18.96,-122.12 21.92,-122.12 21.92,-122.12 90.58,-122.12 90.58,-122.12 93.54,-122.12 96.5,-125.08 96.5,-128.04 96.5,-128.04 96.5,-133.96 96.5,-133.96 96.5,-136.92 93.54,-139.88 90.58,-139.88"/>
<text text-anchor="start" x="24" y="-127.33" font-family="Helvetica,sans-Serif" font-size="9.00">otel.bootstrap.ts</text>
</a>
</g>
</g>
</g>
</svg>
